<svg width="55" height="55" viewBox="0 0 55 55" fill="none" xmlns="http://www.w3.org/2000/svg">
<path d="M47.9639 36.8458H46.0013C45.6175 36.8458 45.332 36.4846 45.332 36.1007V35.4385C45.3271 34.9047 45.1141 34.3939 44.7384 34.0147C44.3626 33.6355 43.8537 33.4179 43.3199 33.4083H42.8748C42.5377 26.4258 36.7285 20.8207 29.6391 20.8207C29.228 20.8185 26.0893 20.8138 24.9043 20.8246C24.1733 19.5952 23.1372 18.5753 21.8962 17.864C20.6553 17.1527 19.2516 16.7741 17.8213 16.7647C17.7181 16.765 17.6166 16.79 17.5251 16.8376C17.4335 16.8852 17.3547 16.954 17.2952 17.0382C17.2357 17.1224 17.1973 17.2197 17.183 17.3219C17.1688 17.424 17.1792 17.5281 17.2134 17.6254L17.361 18.0451C17.8761 19.5015 17.8619 21.0927 17.3208 22.5396C14.657 23.6987 12.4609 25.3516 10.9378 27.3926H8.11035C7.16268 27.3926 6.33789 28.1809 6.33789 29.1286V37.023C6.34908 37.4881 6.53991 37.9307 6.87036 38.2582C7.20081 38.5856 7.6452 38.7724 8.11035 38.7794H9.86348C10.7595 40.4981 12.1387 42.0612 13.8574 43.3599V47.6921C13.8574 48.6398 14.6821 49.4141 15.6299 49.4141H19.9268C20.8744 49.4141 21.5918 48.6398 21.5918 47.6921V46.6727C21.6023 46.2631 21.7699 45.8733 22.0598 45.5838C22.3497 45.2942 22.7398 45.1272 23.1494 45.1172H29.3552C30.1845 45.1172 30.8302 45.8434 30.8302 46.6727V47.6921C30.8371 48.1511 31.0243 48.5889 31.3512 48.9111C31.6782 49.2333 32.1187 49.4139 32.5777 49.4141H36.8746C37.0989 49.4129 37.3207 49.3673 37.5273 49.28C37.7339 49.1926 37.9211 49.0652 38.0782 48.9051C38.2353 48.745 38.3592 48.5554 38.4426 48.3473C38.5261 48.1391 38.5675 47.9164 38.5645 47.6921V42.6111C41.1426 40.4207 42.6235 37.7051 42.8577 34.6973H43.3196C43.5115 34.7065 43.6929 34.7881 43.8271 34.9256C43.9613 35.0632 44.0384 35.2464 44.043 35.4385V36.1009C44.043 37.1954 44.9066 38.1348 46.0013 38.1348H47.9639C48.1348 38.1348 48.2987 38.0669 48.4196 37.946C48.5405 37.8252 48.6084 37.6612 48.6084 37.4903C48.6084 37.3193 48.5405 37.1554 48.4196 37.0345C48.2987 36.9137 48.1348 36.8458 47.9639 36.8458ZM15.9943 33.0488C15.3392 33.0481 14.7112 32.7875 14.248 32.3244C13.7848 31.8612 13.5243 31.2332 13.5236 30.5781C13.5236 30.4072 13.5915 30.2432 13.7123 30.1224C13.8332 30.0015 13.9971 29.9336 14.1681 29.9336C14.339 29.9336 14.503 30.0015 14.6238 30.1224C14.7447 30.2432 14.8126 30.4072 14.8126 30.5781C14.8126 30.8915 14.9371 31.1921 15.1587 31.4137C15.3803 31.6353 15.6809 31.7598 15.9943 31.7598C16.3076 31.7598 16.6082 31.6353 16.8298 31.4137C17.0514 31.1921 17.1759 30.8915 17.1759 30.5781C17.1759 30.4072 17.2438 30.2432 17.3647 30.1224C17.4855 30.0015 17.6495 29.9336 17.8204 29.9336C17.9914 29.9336 18.1553 30.0015 18.2762 30.1224C18.3971 30.2432 18.465 30.4072 18.465 30.5781C18.4642 31.2332 18.2037 31.8612 17.7405 32.3244C17.2773 32.7875 16.6493 33.0481 15.9943 33.0488ZM32.1565 26.3184H26.4258C26.2548 26.3184 26.0909 26.2505 25.97 26.1296C25.8492 26.0088 25.7812 25.8448 25.7812 25.6739C25.7812 25.5029 25.8492 25.339 25.97 25.2181C26.0909 25.0973 26.2548 25.0294 26.4258 25.0294H32.1563C32.3272 25.0294 32.4912 25.0973 32.6121 25.2181C32.7329 25.339 32.8008 25.5029 32.8008 25.6739C32.8008 25.8448 32.7329 26.0088 32.6121 26.1296C32.4912 26.2505 32.3272 26.3184 32.1563 26.3184H32.1565Z" fill="#00AEB5"/>
<circle cx="32.5" cy="7.5" r="5.5" fill="#00AEB5"/>
<path d="M28.312 6.168H29.296C29.4293 6.168 29.5587 6.18267 29.684 6.212C29.8093 6.23867 29.92 6.284 30.016 6.348C30.1147 6.412 30.1933 6.496 30.252 6.6C30.3107 6.704 30.34 6.83067 30.34 6.98C30.34 7.18533 30.2813 7.35333 30.164 7.484C30.0493 7.612 29.892 7.69867 29.692 7.744L30.448 9H29.84L29.184 7.8H28.816V9H28.312V6.168ZM29.228 7.388C29.3 7.388 29.372 7.38267 29.444 7.372C29.516 7.36133 29.58 7.34133 29.636 7.312C29.6947 7.28267 29.7427 7.24133 29.78 7.188C29.8173 7.132 29.836 7.06133 29.836 6.976C29.836 6.89867 29.8187 6.836 29.784 6.788C29.7493 6.73733 29.7053 6.69733 29.652 6.668C29.5987 6.63867 29.5373 6.61867 29.468 6.608C29.4013 6.59733 29.336 6.592 29.272 6.592H28.816V7.388H29.228ZM30.5396 6.168H31.0916L31.6396 8.248H31.6476L32.2716 6.168H32.7916L33.4036 8.248H33.4116L33.9716 6.168H34.5076L33.6796 9H33.1916L32.5276 6.876H32.5196L31.8556 9H31.3676L30.5396 6.168ZM34.8433 6.168H36.6713V6.608H35.3473V7.384H36.5953V7.808H35.3473V9H34.8433V6.168Z" fill="white"/>
</svg>
