<svg width="175" height="102" viewBox="0 0 175 102" fill="none" xmlns="http://www.w3.org/2000/svg">
<g style="mix-blend-mode:multiply" opacity="0.3">
<g style="mix-blend-mode:multiply">
<path d="M0 0H175V101.033H0V0Z" fill="white"/>
</g>
<g style="mix-blend-mode:multiply">
<path d="M87.0777 90.5484C46.2992 90.1214 13.4294 71.8515 13.6609 49.7415C13.8925 27.6315 47.1377 10.054 87.9162 10.4811C128.695 10.9081 161.565 29.178 161.333 51.288C161.102 73.398 127.856 90.9755 87.0777 90.5484Z" fill="white"/>
</g>
<g style="mix-blend-mode:multiply">
<path d="M87.0806 90.2775C46.5764 89.8533 13.9277 71.7071 14.1576 49.7467C14.3876 27.7863 47.4092 10.3278 87.9134 10.752C128.418 11.1762 161.066 29.3224 160.836 51.2828C160.606 73.2431 127.585 90.7017 87.0806 90.2775Z" fill="white"/>
</g>
<g style="mix-blend-mode:multiply">
<path d="M87.0833 90.0156C46.8484 89.5943 14.4168 71.5676 14.6452 49.7518C14.8737 27.9361 47.6757 10.5926 87.9106 11.0139C128.145 11.4353 160.577 29.462 160.349 51.2777C160.12 73.0934 127.318 90.437 87.0833 90.0156Z" fill="white"/>
</g>
<g style="mix-blend-mode:multiply">
<path d="M87.1214 89.8896C47.1586 89.4899 14.938 71.6012 15.1547 49.9339C15.3714 28.2666 47.9433 11.0258 87.906 11.4254C127.869 11.825 160.089 29.7138 159.873 51.3811C159.656 73.0483 127.084 90.2892 87.1214 89.8896Z" fill="white"/>
</g>
<g style="mix-blend-mode:multiply">
<path d="M87.0889 89.4828C47.3976 89.0671 15.4042 71.2836 15.6296 49.7621C15.855 28.2407 48.2138 11.131 87.9051 11.5467C127.596 11.9624 159.59 29.7459 159.364 51.2673C159.139 72.7888 126.78 89.8984 87.0889 89.4828Z" fill="white"/>
</g>
<g style="mix-blend-mode:multiply">
<path d="M87.0917 89.2119C47.6748 88.7991 15.9025 71.1392 16.1263 49.7673C16.3501 28.3955 48.4853 11.4049 87.9022 11.8176C127.319 12.2304 159.091 29.8903 158.868 51.2622C158.644 72.634 126.509 89.6246 87.0917 89.2119Z" fill="white"/>
</g>
<g style="mix-blend-mode:multiply">
<path d="M87.0945 88.95C47.9469 88.54 16.3917 70.9996 16.614 49.7724C16.8363 28.5452 48.7519 11.6696 87.8995 12.0795C127.047 12.4895 158.602 30.0299 158.38 51.2571C158.158 72.4842 126.242 89.3599 87.0945 88.95Z" fill="white"/>
</g>
<g style="mix-blend-mode:multiply">
<path d="M87.0974 88.6791C48.2241 88.272 16.89 70.8552 17.1108 49.7777C17.3315 28.7001 49.0234 11.9434 87.8967 12.3505C126.77 12.7576 158.104 30.1743 157.883 51.2519C157.663 72.3294 125.971 89.0862 87.0974 88.6791Z" fill="white"/>
</g>
<g style="mix-blend-mode:multiply">
<path d="M87.1 88.4172C48.4961 88.0129 17.3791 70.7157 17.5983 49.7827C17.8175 28.8498 49.2899 12.2081 87.8939 12.6124C126.498 13.0166 157.615 30.3138 157.396 51.2468C157.176 72.1797 125.704 88.8214 87.1 88.4172Z" fill="white"/>
</g>
<g style="mix-blend-mode:multiply">
<path d="M87.1029 88.1463C48.7732 87.7449 17.8774 70.5713 18.0951 49.788C18.3127 29.0047 49.5614 12.4819 87.8911 12.8833C126.221 13.2847 157.117 30.4583 156.899 51.2416C156.681 72.0249 125.433 88.5477 87.1029 88.1463Z" fill="white"/>
</g>
<g style="mix-blend-mode:multiply">
<path d="M87.1057 87.8753C49.0454 87.4767 18.3666 70.4267 18.5827 49.7931C18.7988 29.1594 49.8279 12.7556 87.8882 13.1542C125.949 13.5528 156.627 30.6028 156.411 51.2365C156.195 71.8701 125.166 88.2739 87.1057 87.8753Z" fill="white"/>
</g>
<g style="mix-blend-mode:multiply">
<path d="M87.1085 87.6134C49.3225 87.2177 18.8649 70.2873 19.0794 49.7983C19.294 29.3093 50.0995 13.0204 87.8855 13.4161C125.671 13.8118 156.129 30.7423 155.915 51.2313C155.7 71.7203 124.894 88.0092 87.1085 87.6134Z" fill="#FEFFFF"/>
</g>
<g style="mix-blend-mode:multiply">
<path d="M87.1113 87.3425C49.5947 86.9496 19.3541 70.1428 19.5671 49.8034C19.7801 29.464 50.366 13.2942 87.8827 13.6871C125.399 14.0799 155.64 30.8868 155.427 51.2262C155.214 71.5656 124.628 87.7354 87.1113 87.3425Z" fill="#FEFFFF"/>
</g>
<g style="mix-blend-mode:multiply">
<path d="M87.114 87.0806C49.8717 86.6906 19.8523 70.0034 20.0638 49.8086C20.2752 29.6139 50.6375 13.559 87.8799 13.949C125.122 14.339 155.142 31.0262 154.93 51.221C154.719 71.4157 124.356 87.4707 87.114 87.0806Z" fill="#FEFEFF"/>
</g>
<g style="mix-blend-mode:multiply">
<path d="M87.1168 86.8096C50.1438 86.4224 20.3415 69.8588 20.5514 49.8137C20.7613 29.7685 50.904 13.8326 87.877 14.2198C124.85 14.607 154.652 31.1707 154.443 51.2158C154.233 71.2609 124.09 87.1968 87.1168 86.8096Z" fill="#FEFEFF"/>
</g>
<g style="mix-blend-mode:multiply">
<path d="M87.1196 86.5478C50.421 86.1634 20.8397 69.7194 21.0482 49.8189C21.2566 29.9184 51.1757 14.0974 87.8743 14.4817C124.573 14.8661 154.154 31.3101 153.946 51.2106C153.737 71.1111 123.818 86.9321 87.1196 86.5478Z" fill="#FEFEFF"/>
</g>
<g style="mix-blend-mode:multiply">
<path d="M87.1225 86.2768C50.6931 85.8953 21.329 69.5748 21.5358 49.824C21.7427 30.0731 51.4422 14.3711 87.8715 14.7527C124.301 15.1342 153.665 31.4547 153.458 51.2055C153.251 70.9564 123.552 86.6583 87.1225 86.2768Z" fill="#FEFEFF"/>
</g>
<g style="mix-blend-mode:multiply">
<path d="M87.1251 86.015C50.9701 85.6363 21.8271 69.4354 22.0324 49.8292C22.2378 30.223 51.7136 14.6359 87.8687 15.0146C124.024 15.3932 153.167 31.5941 152.961 51.2003C152.756 70.8065 123.28 86.3936 87.1251 86.015Z" fill="#FEFEFF"/>
</g>
<g style="mix-blend-mode:multiply">
<path d="M87.128 85.744C51.2423 85.3682 22.3164 69.2909 22.5201 49.8343C22.7239 30.3777 51.9802 14.9097 87.8659 15.2855C123.752 15.6613 152.678 31.7386 152.474 51.1952C152.27 70.6518 123.014 86.1198 87.128 85.744Z" fill="#FDFEFE"/>
</g>
<g style="mix-blend-mode:multiply">
<path d="M87.1309 85.4731C51.5195 85.1001 22.8146 69.1464 23.0168 49.8395C23.219 30.5325 52.2517 15.1834 87.8631 15.5564C123.474 15.9293 152.179 31.883 151.977 51.19C151.775 70.4969 122.742 85.846 87.1309 85.4731Z" fill="#FDFEFE"/>
</g>
<g style="mix-blend-mode:multiply">
<path d="M87.1336 85.2112C51.7916 84.8411 23.3038 69.0069 23.5045 49.8446C23.7052 30.6823 52.5183 15.4482 87.8603 15.8183C123.202 16.1884 151.69 32.0226 151.489 51.1849C151.289 70.3472 122.476 85.5813 87.1336 85.2112Z" fill="#FDFEFE"/>
</g>
<g style="mix-blend-mode:multiply">
<path d="M87.1365 84.9403C52.0687 84.573 23.8021 68.8625 24.0012 49.8498C24.2003 30.8371 52.7898 15.722 87.8575 16.0892C122.925 16.4564 151.192 32.167 150.993 51.1797C150.794 70.1924 122.204 85.3075 87.1365 84.9403Z" fill="#FDFDFE"/>
</g>
<g style="mix-blend-mode:multiply">
<path d="M87.1391 84.6784C52.3457 84.314 24.3002 68.7231 24.4978 49.855C24.6954 30.9869 53.0612 15.9867 87.8547 16.3511C122.648 16.7155 150.694 32.3064 150.496 51.1745C150.298 70.0426 121.933 85.0428 87.1391 84.6784Z" fill="#FCFDFE"/>
</g>
<g style="mix-blend-mode:multiply">
<path d="M87.142 84.4074C52.6179 84.0459 24.7895 68.5785 24.9855 49.8601C25.1815 31.1417 53.3278 16.2605 87.8519 16.622C122.376 16.9836 150.204 32.451 150.008 51.1694C149.812 69.8878 121.666 84.769 87.142 84.4074Z" fill="#FCFDFE"/>
</g>
<g style="mix-blend-mode:multiply">
<path d="M87.1447 84.1456C52.895 83.7869 25.2877 68.4391 25.4822 49.8653C25.6767 31.2915 53.5993 16.5253 87.8491 16.8839C122.099 17.2426 149.706 32.5904 149.512 51.1642C149.317 69.738 121.395 84.5043 87.1447 84.1456Z" fill="#FCFDFE"/>
</g>
<g style="mix-blend-mode:multiply">
<path d="M87.1476 83.8746C53.1672 83.5188 25.777 68.2946 25.9699 49.8704C26.1629 31.4463 53.8659 16.799 87.8463 17.1549C121.827 17.5107 149.217 32.7349 149.024 51.1591C148.831 69.5832 121.128 84.2305 87.1476 83.8746Z" fill="#FCFDFE"/>
</g>
<g style="mix-blend-mode:multiply">
<path d="M87.1504 83.6127C53.4442 83.2597 26.2752 68.1551 26.4666 49.8756C26.6581 31.5961 54.1375 17.0637 87.8436 17.4167C121.55 17.7697 148.719 32.8743 148.527 51.1538C148.336 69.4334 120.856 83.9657 87.1504 83.6127Z" fill="#FBFDFE"/>
</g>
<g style="mix-blend-mode:multiply">
<path d="M87.1853 83.4863C53.7467 83.1519 26.7863 68.1829 26.9676 50.052C27.1489 31.9211 54.4033 17.4942 87.8419 17.8286C121.281 18.1629 148.241 33.132 148.06 51.2629C147.878 69.3938 120.624 83.8207 87.1853 83.4863Z" fill="#FBFCFE"/>
</g>
<g style="mix-blend-mode:multiply">
<path d="M87.1559 83.0799C53.9934 82.7326 27.2626 67.8711 27.4509 49.8859C27.6393 31.9006 54.6755 17.6023 87.838 17.9495C121 18.2968 147.731 33.1583 147.543 51.1435C147.355 69.1288 120.318 83.4272 87.1559 83.0799Z" fill="#FBFCFE"/>
</g>
<g style="mix-blend-mode:multiply">
<path d="M87.1588 82.809C54.2656 82.4646 27.7519 67.7267 27.9386 49.8911C28.1254 32.0554 54.942 17.8761 87.8351 18.2205C120.728 18.565 147.242 33.3029 147.055 51.1385C146.869 68.9741 120.052 83.1535 87.1588 82.809Z" fill="#FAFCFE"/>
</g>
<g style="mix-blend-mode:multiply">
<path d="M87.1616 82.5381C54.5427 82.1965 28.2501 67.5822 28.4353 49.8962C28.6205 32.2102 55.2134 18.1498 87.8323 18.4914C120.451 18.833 146.744 33.4473 146.559 51.1332C146.373 68.8192 119.78 82.8797 87.1616 82.5381Z" fill="#FAFCFD"/>
</g>
<g style="mix-blend-mode:multiply">
<path d="M87.1644 82.2762C54.8149 81.9374 28.7393 67.4427 28.923 49.9014C29.1067 32.36 55.4801 18.4146 87.8296 18.7534C120.179 19.0921 146.255 33.5868 146.071 51.1282C145.887 68.6695 119.514 82.615 87.1644 82.2762Z" fill="#FAFCFD"/>
</g>
<g style="mix-blend-mode:multiply">
<path d="M87.1672 82.0053C55.092 81.6694 29.2376 67.2983 29.4197 49.9065C29.6019 32.5148 55.7516 18.6883 87.8268 19.0242C119.902 19.3601 145.756 33.7312 145.574 51.123C145.392 68.5147 119.242 82.3412 87.1672 82.0053Z" fill="#F9FBFD"/>
</g>
<g style="mix-blend-mode:multiply">
<path d="M87.1699 81.7434C55.364 81.4103 29.7267 67.1588 29.9073 49.9117C30.0879 32.6646 56.0181 18.9531 87.8239 19.2862C119.63 19.6193 145.267 33.8708 145.087 51.1179C144.906 68.365 118.976 82.0765 87.1699 81.7434Z" fill="#F9FBFD"/>
</g>
<g style="mix-blend-mode:multiply">
<path d="M87.1727 81.4724C55.6412 81.1422 30.225 67.0143 30.404 49.9169C30.5831 32.8194 56.2896 19.2269 87.8211 19.5571C119.353 19.8873 144.769 34.0152 144.59 51.1127C144.411 68.2101 118.704 81.8027 87.1727 81.4724Z" fill="#F9FBFD"/>
</g>
<g style="mix-blend-mode:multiply">
<path d="M87.1755 81.2105C55.9133 80.8832 30.7142 66.8748 30.8917 49.922C31.0693 32.9691 56.5562 19.4916 87.8184 19.819C119.081 20.1463 144.28 34.1547 144.102 51.1075C143.925 68.0604 118.438 81.5379 87.1755 81.2105Z" fill="#F8FBFD"/>
</g>
<g style="mix-blend-mode:multiply">
<path d="M87.1784 80.9396C56.1905 80.6151 31.2125 66.7304 31.3885 49.9272C31.5644 33.124 56.8277 19.7654 87.8156 20.0899C118.804 20.4144 143.782 34.2992 143.606 51.1024C143.43 67.9056 118.166 81.2642 87.1784 80.9396Z" fill="#F8FAFD"/>
</g>
<g style="mix-blend-mode:multiply">
<path d="M87.1811 80.6777C56.4626 80.356 31.7017 66.5908 31.8761 49.9323C32.0506 33.2737 57.0943 20.0301 87.8129 20.3518C118.531 20.6735 143.292 34.4387 143.118 51.0972C142.943 67.7558 117.9 80.9994 87.1811 80.6777Z" fill="#F7FAFD"/>
</g>
<g style="mix-blend-mode:multiply">
<path d="M87.1839 80.4068C56.7396 80.0879 32.1999 66.4464 32.3728 49.9374C32.5456 33.4285 57.3657 20.3038 87.81 20.6227C118.254 20.9415 142.794 34.5831 142.621 51.092C142.448 67.6009 117.628 80.7256 87.1839 80.4068Z" fill="#F7FAFC"/>
</g>
<g style="mix-blend-mode:multiply">
<path d="M87.1867 80.1358C57.0118 79.8198 32.6891 66.3018 32.8604 49.9425C33.0317 33.5832 57.6322 20.5776 87.8071 20.8936C117.982 21.2096 142.305 34.7276 142.133 51.0869C141.962 67.4462 117.362 80.4518 87.1867 80.1358Z" fill="#F6F9FC"/>
</g>
<g style="mix-blend-mode:multiply">
<path d="M87.1895 79.874C57.2889 79.5608 33.1873 66.1624 33.3572 49.9478C33.527 33.7331 57.9038 20.8424 87.8044 21.1555C117.705 21.4686 141.807 34.867 141.637 51.0817C141.467 67.2964 117.09 80.1871 87.1895 79.874Z" fill="#F6F9FC"/>
</g>
<g style="mix-blend-mode:multiply">
<path d="M87.1924 79.603C57.5611 79.2927 33.6766 66.0179 33.8449 49.9529C34.0131 33.8878 58.1704 21.1161 87.8016 21.4264C117.433 21.7367 141.317 35.0116 141.149 51.0766C140.981 67.1416 116.824 79.9133 87.1924 79.603Z" fill="#F5F9FC"/>
</g>
<g style="mix-blend-mode:multiply">
<path d="M87.1951 79.3412C57.8382 79.0337 34.1748 65.8785 34.3416 49.9581C34.5083 34.0377 58.4419 21.3809 87.7989 21.6883C117.156 21.9958 140.819 35.151 140.652 51.0714C140.486 66.9918 116.552 79.6486 87.1951 79.3412Z" fill="#F5F8FC"/>
</g>
<g style="mix-blend-mode:multiply">
<path d="M87.2281 79.2145C58.1389 78.9236 34.6853 65.9023 34.843 50.1307C35.0007 34.3591 58.71 21.8095 87.7992 22.1004C116.888 22.3913 140.342 35.4125 140.184 51.1841C140.027 66.9558 116.317 79.5054 87.2281 79.2145Z" fill="#F4F8FC"/>
</g>
<g style="mix-blend-mode:multiply">
<path d="M87.2006 78.8083C58.3873 78.5066 35.1622 65.5945 35.3258 49.9684C35.4895 34.3423 58.9799 21.9194 87.7932 22.2212C116.607 22.5229 139.832 35.435 139.668 51.0611C139.504 66.6872 116.014 79.1101 87.2006 78.8083Z" fill="#F4F8FC"/>
</g>
<g style="mix-blend-mode:multiply">
<path d="M87.2334 78.6816C58.6878 78.3962 35.6726 65.6179 35.8274 50.1406C35.9821 34.6632 59.2483 22.3478 87.7939 22.6332C116.339 22.9187 139.355 35.6969 139.2 51.1743C139.045 66.6516 115.779 78.9671 87.2334 78.6816Z" fill="#F3F7FB"/>
</g>
<g style="mix-blend-mode:multiply">
<path d="M87.2062 78.2755C58.9366 77.9795 36.1497 65.3106 36.3102 49.9787C36.4708 34.6469 59.518 22.4579 87.7877 22.754C116.057 23.05 138.844 35.719 138.684 51.0508C138.523 66.3827 115.476 78.5716 87.2062 78.2755Z" fill="#F3F7FB"/>
</g>
<g style="mix-blend-mode:multiply">
<path d="M87.2091 78.0046C59.2088 77.7114 36.6389 65.166 36.7979 49.9838C36.9569 34.8016 59.7846 22.7317 87.7849 23.0249C115.785 23.3181 138.355 35.8635 138.196 51.0457C138.037 66.2279 115.209 78.2978 87.2091 78.0046Z" fill="#F2F7FB"/>
</g>
<g style="mix-blend-mode:multiply">
<path d="M87.212 77.7336C59.4859 77.4433 37.1372 65.0216 37.2946 49.989C37.452 34.9564 60.056 23.0054 87.782 23.2958C115.508 23.5862 137.857 36.0079 137.699 51.0405C137.542 66.0731 114.938 78.024 87.212 77.7336Z" fill="#F2F6FB"/>
</g>
<g style="mix-blend-mode:multiply">
<path d="M87.2146 77.4718C59.758 77.1843 37.6263 64.8821 37.7822 49.9941C37.9381 35.1062 60.3226 23.2702 87.7792 23.5577C115.236 23.8453 137.368 36.1474 137.212 51.0354C137.056 65.9234 114.671 77.7593 87.2146 77.4718Z" fill="#F1F6FB"/>
</g>
<g style="mix-blend-mode:multiply">
<path d="M87.2175 77.2008C60.0351 76.9162 38.1246 64.7376 38.2789 49.9993C38.4333 35.261 60.594 23.544 87.7764 23.8286C114.959 24.1133 136.869 36.2918 136.715 51.0302C136.561 65.7685 114.4 77.4855 87.2175 77.2008Z" fill="#F0F5FB"/>
</g>
<g style="mix-blend-mode:multiply">
<path d="M87.2203 76.939C60.3072 76.6572 38.6138 64.5981 38.7666 50.0045C38.9195 35.4108 60.8607 23.8087 87.7737 24.0906C114.687 24.3724 136.38 36.4314 136.227 51.0251C136.075 65.6188 114.133 77.2208 87.2203 76.939Z" fill="#F0F5FA"/>
</g>
<g style="mix-blend-mode:multiply">
<path d="M87.2231 76.668C60.5844 76.3891 39.1121 64.4537 39.2633 50.0096C39.4146 35.5656 61.1322 24.0825 87.7709 24.3615C114.41 24.6404 135.882 36.5758 135.731 51.0199C135.579 65.4639 113.862 76.947 87.2231 76.668Z" fill="#EFF5FA"/>
</g>
<g style="mix-blend-mode:multiply">
<path d="M87.2547 76.5503C60.8839 76.2866 39.622 64.4802 39.7651 50.18C39.9081 35.8798 61.4018 24.5009 87.7726 24.7646C114.143 25.0283 135.405 36.8347 135.262 51.1349C135.119 65.4351 113.626 76.814 87.2547 76.5503Z" fill="#EEF4FA"/>
</g>
<g style="mix-blend-mode:multiply">
<path d="M87.2286 76.1352C61.1336 75.8619 40.0995 64.1697 40.2476 50.0199C40.3958 35.8701 61.6702 24.621 87.7652 24.8943C113.86 25.1676 134.894 36.8598 134.746 51.0096C134.598 65.1594 113.324 76.4085 87.2286 76.1352Z" fill="#EEF4FA"/>
</g>
<g style="mix-blend-mode:multiply">
<path d="M87.2314 75.8733C61.4057 75.6029 40.5887 64.0302 40.7353 50.025C40.882 36.0199 61.9368 24.8857 87.7625 25.1562C113.588 25.4266 134.405 36.9993 134.259 51.0044C134.112 65.0096 113.057 76.1438 87.2314 75.8733Z" fill="#EDF3F9"/>
</g>
<g style="mix-blend-mode:multiply">
<path d="M87.2342 75.6024C61.6828 75.3348 41.0869 63.8858 41.232 50.0303C41.3771 36.1747 62.2083 25.1595 87.7597 25.4271C113.311 25.6947 133.907 37.1437 133.762 50.9993C133.617 64.8548 112.786 75.87 87.2342 75.6024Z" fill="#ECF3F9"/>
</g>
<g style="mix-blend-mode:multiply">
<path d="M87.2655 75.4755C61.982 75.2227 41.5969 63.9063 41.7339 50.1996C41.871 36.493 62.4784 25.5865 87.7619 25.8393C113.045 26.0922 133.431 37.4086 133.294 51.1152C133.156 64.8219 112.549 75.7283 87.2655 75.4755Z" fill="#ECF2F9"/>
</g>
<g style="mix-blend-mode:multiply">
<path d="M87.2399 75.0695C62.2321 74.8077 42.0744 63.6018 42.2164 50.0405C42.3585 36.4793 62.7464 25.698 87.7542 25.9599C112.762 26.2218 132.92 37.4277 132.778 50.9889C132.636 64.5502 112.248 75.3314 87.2399 75.0695Z" fill="#EBF2F9"/>
</g>
<g style="mix-blend-mode:multiply">
<path d="M87.2426 74.7986C62.5042 74.5395 42.5636 63.4573 42.704 50.0456C42.8445 36.634 63.0128 25.9717 87.7512 26.2308C112.49 26.4899 132.43 37.5722 132.29 50.9838C132.149 64.3954 111.981 75.0577 87.2426 74.7986Z" fill="#EAF1F9"/>
</g>
<g style="mix-blend-mode:multiply">
<path d="M87.2454 74.5367C62.7812 74.2805 43.0618 63.3178 43.2007 50.0508C43.3397 36.7839 63.2844 26.2365 87.7485 26.4927C112.213 26.7489 131.932 37.7116 131.793 50.9786C131.654 64.2456 111.709 74.7929 87.2454 74.5367Z" fill="#E9F1F8"/>
</g>
<g style="mix-blend-mode:multiply">
<path d="M87.2482 74.2658C63.0534 74.0124 43.551 63.1733 43.6884 50.0559C43.8258 36.9386 63.5509 26.5103 87.7457 26.7636C111.94 27.017 131.443 37.8561 131.306 50.9735C131.168 64.0909 111.443 74.5192 87.2482 74.2658Z" fill="#E9F0F8"/>
</g>
<g style="mix-blend-mode:multiply">
<path d="M87.251 74.0039C63.3305 73.7534 44.0493 63.0339 44.1851 50.0612C44.321 37.0884 63.8225 26.775 87.743 27.0255C111.663 27.2761 130.945 37.9956 130.809 50.9683C130.673 63.941 111.171 74.2544 87.251 74.0039Z" fill="#E8F0F8"/>
</g>
<g style="mix-blend-mode:multiply">
<path d="M87.2539 73.7331C63.6027 73.4854 44.5386 62.8894 44.6728 50.0663C44.8071 37.2432 64.089 27.0488 87.7402 27.2965C111.391 27.5442 130.456 38.1402 130.321 50.9633C130.187 63.7864 110.905 73.9807 87.2539 73.7331Z" fill="#E7EFF8"/>
</g>
<g style="mix-blend-mode:multiply">
<path d="M87.2566 73.4711C63.8798 73.2263 45.0368 62.7499 45.1695 50.0715C45.3023 37.393 64.3606 27.3136 87.7374 27.5584C111.114 27.8032 129.957 38.2796 129.825 50.958C129.692 63.6365 110.633 73.7159 87.2566 73.4711Z" fill="#E6EFF7"/>
</g>
<g style="mix-blend-mode:multiply">
<path d="M87.2594 73.2003C64.1519 72.9583 45.5259 62.6055 45.6571 50.0766C45.7883 37.5478 64.627 27.5874 87.7345 27.8294C110.842 28.0713 129.468 38.4241 129.337 50.953C129.206 63.4818 110.367 73.4422 87.2594 73.2003Z" fill="#E5EEF7"/>
</g>
<g style="mix-blend-mode:multiply">
<path d="M87.2622 72.9293C64.429 72.6902 46.0242 62.461 46.1538 50.0818C46.2835 37.7026 64.8985 27.8611 87.7317 28.1002C110.565 28.3394 128.97 38.5685 128.84 50.9477C128.71 63.3269 110.095 73.1684 87.2622 72.9293Z" fill="#E5EEF7"/>
</g>
<g style="mix-blend-mode:multiply">
<path d="M87.265 72.6674C64.7011 72.4311 46.5134 62.3215 46.6415 50.0869C46.7696 37.8523 65.1651 28.1258 87.729 28.3621C110.293 28.5984 128.481 38.708 128.352 50.9426C128.224 63.1772 109.829 72.9037 87.265 72.6674Z" fill="#E4EDF7"/>
</g>
<g style="mix-blend-mode:multiply">
<path d="M87.2679 72.3964C64.9783 72.163 47.0117 62.177 47.1383 50.0921C47.2648 38.0071 65.4366 28.3996 87.7262 28.633C110.016 28.8664 127.982 38.8524 127.856 50.9374C127.729 63.0223 109.557 72.6298 87.2679 72.3964Z" fill="#E3EDF6"/>
</g>
<g style="mix-blend-mode:multiply">
<path d="M87.2706 72.1346C65.2504 71.904 47.5009 62.0375 47.6259 50.0972C47.751 38.1569 65.7032 28.6644 87.7234 28.895C109.744 29.1256 127.493 38.992 127.368 50.9323C127.243 62.8726 109.291 72.3652 87.2706 72.1346Z" fill="#E2ECF6"/>
</g>
<g style="mix-blend-mode:multiply">
<path d="M87.2734 71.8636C65.5275 71.6359 47.9991 61.893 48.1225 50.1024C48.246 38.3117 65.9746 28.9381 87.7205 29.1658C109.466 29.3936 126.995 39.1364 126.871 50.9271C126.748 62.7177 109.019 72.0913 87.2734 71.8636Z" fill="#E1EBF6"/>
</g>
<g style="mix-blend-mode:multiply">
<path d="M87.2761 71.6018C65.7996 71.3769 48.4882 61.7536 48.6102 50.1075C48.7322 38.4615 66.2412 29.2029 87.7178 29.4278C109.194 29.6527 126.506 39.276 126.384 50.922C126.262 62.568 108.753 71.8267 87.2761 71.6018Z" fill="#E0EBF6"/>
</g>
<g style="mix-blend-mode:multiply">
<path d="M87.279 71.3308C66.0767 71.1088 48.9865 61.6091 49.1069 50.1127C49.2273 38.6163 66.5127 29.4766 87.715 29.6987C108.917 29.9207 126.007 39.4204 125.887 50.9168C125.767 62.4132 108.481 71.5528 87.279 71.3308Z" fill="#DFEAF5"/>
</g>
<g style="mix-blend-mode:multiply">
<path d="M87.2817 71.069C66.3487 70.8497 49.4756 61.4696 49.5945 50.1179C49.7134 38.7661 66.7792 29.7414 87.7122 29.9606C108.645 30.1798 125.518 39.56 125.399 50.9117C125.28 62.2635 108.215 71.2882 87.2817 71.069Z" fill="#DEEAF5"/>
</g>
<g style="mix-blend-mode:multiply">
<path d="M87.2846 70.798C66.626 70.5817 49.974 61.3252 50.0913 50.123C50.2086 38.9209 67.0508 30.0152 87.7094 30.2315C108.368 30.4478 125.02 39.7043 124.903 50.9065C124.785 62.1086 107.943 71.0143 87.2846 70.798Z" fill="#DDE9F5"/>
</g>
<g style="mix-blend-mode:multiply">
<path d="M87.2874 70.5271C66.8981 70.3136 50.4632 61.1807 50.5789 50.1282C50.6947 39.0757 67.3173 30.289 87.7065 30.5025C108.096 30.716 124.531 39.8489 124.415 50.9014C124.299 61.9539 107.677 70.7406 87.2874 70.5271Z" fill="#DCE8F4"/>
</g>
<g style="mix-blend-mode:multiply">
<path d="M87.2901 70.2652C67.1752 70.0545 50.9614 61.0412 51.0756 50.1333C51.1899 39.2255 67.5888 30.5537 87.7038 30.7643C107.819 30.975 124.033 39.9883 123.918 50.8962C123.804 61.804 107.405 70.4758 87.2901 70.2652Z" fill="#DBE8F4"/>
</g>
<g style="mix-blend-mode:multiply">
<path d="M87.293 69.9943C67.4474 69.7864 51.4507 60.8967 51.5633 50.1384C51.676 39.3802 67.8554 30.8274 87.701 31.0352C107.547 31.2431 123.543 40.1328 123.431 50.8911C123.318 61.6493 107.139 70.2021 87.293 69.9943Z" fill="#DAE7F4"/>
</g>
<g style="mix-blend-mode:multiply">
<path d="M87.2957 69.7323C67.7244 69.5274 51.9489 60.7572 52.06 50.1436C52.1712 39.53 68.1269 31.0921 87.6983 31.2971C107.27 31.5021 123.045 40.2722 122.934 50.8858C122.823 61.4994 106.867 69.9373 87.2957 69.7323Z" fill="#D9E6F3"/>
</g>
<g style="mix-blend-mode:multiply">
<path d="M87.2986 69.4614C67.9966 69.2593 52.4382 60.6127 52.5477 50.1488C52.6573 39.6848 68.3935 31.3659 87.6954 31.5681C106.997 31.7702 122.556 40.4168 122.446 50.8808C122.337 61.3447 106.601 69.6636 87.2986 69.4614Z" fill="#D8E6F3"/>
</g>
<g style="mix-blend-mode:multiply">
<path d="M87.3012 69.1995C68.2736 69.0002 52.9362 60.4732 53.0443 50.1539C53.1524 39.8346 68.6649 31.6307 87.6926 31.8299C106.72 32.0292 122.058 40.5562 121.95 50.8755C121.841 61.1948 106.329 69.3988 87.3012 69.1995Z" fill="#D7E5F3"/>
</g>
<g style="mix-blend-mode:multiply">
<path d="M87.3041 68.9286C68.5458 68.7321 53.4255 60.3287 53.532 50.159C53.6385 39.9893 68.9315 31.9044 87.6898 32.1008C106.448 32.2973 121.568 40.7007 121.462 50.8704C121.355 61.0401 106.062 69.125 87.3041 68.9286Z" fill="#D6E4F2"/>
</g>
<g style="mix-blend-mode:multiply">
<path d="M87.3069 68.6667C68.8228 68.4731 53.9237 60.1893 54.0287 50.1642C54.1337 40.1392 69.203 32.1692 87.687 32.3628C106.171 32.5563 121.07 40.8402 120.965 50.8652C120.86 60.8903 105.791 68.8603 87.3069 68.6667Z" fill="#D5E4F2"/>
</g>
<g style="mix-blend-mode:multiply">
<path d="M87.3097 68.3958C69.095 68.2051 54.413 60.0448 54.5164 50.1694C54.6198 40.294 69.4696 32.443 87.6842 32.6337C105.899 32.8245 120.581 40.9847 120.478 50.8602C120.374 60.7356 105.524 68.5866 87.3097 68.3958Z" fill="#D4E3F2"/>
</g>
<g style="mix-blend-mode:multiply">
<path d="M87.3124 68.1339C69.372 67.946 54.9111 59.9054 55.013 50.1746C55.1149 40.4438 69.7411 32.7077 87.6814 32.8956C105.622 33.0835 120.083 41.1241 119.981 50.8549C119.879 60.5857 105.253 68.3218 87.3124 68.1339Z" fill="#D3E2F1"/>
</g>
<g style="mix-blend-mode:multiply">
<path d="M87.3153 67.863C69.6442 67.6779 55.4004 59.7608 55.5007 50.1797C55.601 40.5985 70.0076 32.9815 87.6786 33.1665C105.35 33.3516 119.594 41.2687 119.493 50.8498C119.393 60.431 104.986 68.048 87.3153 67.863Z" fill="#D2E1F1"/>
</g>
<g style="mix-blend-mode:multiply">
<path d="M87.3181 67.5921C69.9214 67.4099 55.8987 59.6164 55.9974 50.1849C56.0962 40.7533 70.2791 33.2553 87.6758 33.4375C105.072 33.6196 119.095 41.4131 118.996 50.8446C118.898 60.2762 104.715 67.7742 87.3181 67.5921Z" fill="#D0E1F1"/>
</g>
<g style="mix-blend-mode:multiply">
<path d="M87.3209 67.3302C70.1935 67.1508 56.3878 59.4769 56.4851 50.19C56.5824 40.9031 70.5457 33.52 87.6731 33.6993C104.8 33.8787 118.606 41.5526 118.509 50.8395C118.412 60.1264 104.448 67.5095 87.3209 67.3302Z" fill="#CFE0F0"/>
</g>
<g style="mix-blend-mode:multiply">
<path d="M87.3237 67.0592C70.4707 66.8827 56.8861 59.3324 56.9818 50.1951C57.0775 41.0579 70.8172 33.7937 87.6702 33.9702C104.523 34.1467 118.108 41.697 118.012 50.8343C117.916 59.9715 104.177 67.2357 87.3237 67.0592Z" fill="#CEDFF0"/>
</g>
<g style="mix-blend-mode:multiply">
<path d="M87.3264 66.7973C70.7427 66.6237 57.3752 59.1929 57.4694 50.2003C57.5636 41.2077 71.0837 34.0585 87.6674 34.2322C104.251 34.4058 117.619 41.8366 117.524 50.8292C117.43 59.8218 103.91 66.971 87.3264 66.7973Z" fill="#CDDEF0"/>
</g>
<g style="mix-blend-mode:multiply">
<path d="M87.3292 66.5264C71.0198 66.3556 57.8735 59.0485 57.9661 50.2055C58.0587 41.3625 71.3552 34.3323 87.6646 34.5031C103.974 34.6739 117.12 41.981 117.028 50.824C116.935 59.667 103.639 66.6972 87.3292 66.5264Z" fill="#CCDEEF"/>
</g>
<g style="mix-blend-mode:multiply">
<path d="M87.332 66.2645C71.2919 66.0966 58.3627 58.909 58.4538 50.2106C58.5449 41.5123 71.6218 34.597 87.6619 34.765C103.702 34.933 116.631 42.1206 116.54 50.8189C116.449 59.5173 103.372 66.4325 87.332 66.2645Z" fill="#CBDDEF"/>
</g>
<g style="mix-blend-mode:multiply">
<path d="M87.3349 65.9936C71.5691 65.8285 58.861 58.7645 58.9505 50.2158C59.04 41.6671 71.8933 34.8708 87.6591 35.0359C103.425 35.201 116.133 42.265 116.043 50.8137C115.954 59.3624 103.101 66.1587 87.3349 65.9936Z" fill="#C9DCEF"/>
</g>
<g style="mix-blend-mode:multiply">
<path d="M87.3615 65.8752C71.8642 65.7203 59.3693 58.7814 59.4534 50.3769C59.5374 41.9723 72.1686 35.2847 87.6659 35.4397C103.163 35.5946 115.658 42.5335 115.574 50.9381C115.49 59.3426 102.859 66.0302 87.3615 65.8752Z" fill="#C8DBEE"/>
</g>
<g style="mix-blend-mode:multiply">
<path d="M87.3404 65.4608C72.1182 65.3014 59.8484 58.4806 59.9348 50.2261C60.0212 41.9716 72.4313 35.4093 87.6534 35.5687C102.876 35.7281 115.145 42.5489 115.059 50.8034C114.973 59.0578 102.562 65.6202 87.3404 65.4608Z" fill="#C7DAEE"/>
</g>
<g style="mix-blend-mode:multiply">
<path d="M87.3432 65.1899C72.3904 65.0333 60.3376 58.3361 60.4225 50.2313C60.5074 42.1264 72.6978 35.6831 87.6506 35.8397C102.603 35.9963 114.656 42.6935 114.571 50.7983C114.486 58.9032 102.296 65.3465 87.3432 65.1899Z" fill="#C5D9ED"/>
</g>
<g style="mix-blend-mode:multiply">
<path d="M87.346 64.928C72.6675 64.7742 60.8359 58.1966 60.9192 50.2364C61.0026 42.2762 72.9694 35.9478 87.6479 36.1016C102.326 36.2553 114.158 42.8329 114.075 50.7931C113.991 58.7533 102.024 65.0817 87.346 64.928Z" fill="#C4D9ED"/>
</g>
<g style="mix-blend-mode:multiply">
<path d="M87.3488 64.657C72.9397 64.5061 61.3251 58.0521 61.4069 50.2415C61.4887 42.431 73.2359 36.2216 87.6451 36.3725C102.054 36.5234 113.669 42.9774 113.587 50.788C113.505 58.5985 101.758 64.8079 87.3488 64.657Z" fill="#C3D8ED"/>
</g>
<g style="mix-blend-mode:multiply">
<path d="M87.3516 64.3951C73.2168 64.2471 61.8233 57.9126 61.9036 50.2467C61.9839 42.5808 73.5075 36.4863 87.6423 36.6343C101.777 36.7823 113.171 43.1168 113.09 50.7827C113.01 58.4487 101.486 64.5431 87.3516 64.3951Z" fill="#C2D7EC"/>
</g>
<g style="mix-blend-mode:multiply">
<path d="M87.3544 64.1242C73.4889 63.979 62.3125 57.7681 62.3912 50.2518C62.4699 42.7355 73.7739 36.7601 87.6394 36.9053C101.505 37.0505 112.681 43.2614 112.603 50.7777C112.524 58.294 101.22 64.2694 87.3544 64.1242Z" fill="#C0D6EC"/>
</g>
<g style="mix-blend-mode:multiply">
<path d="M87.3572 63.8623C73.766 63.72 62.8107 57.6287 62.8879 50.257C62.9651 42.8853 74.0455 37.0248 87.6367 37.1672C101.228 37.3095 112.183 43.4008 112.106 50.7724C112.029 58.1441 100.948 64.0046 87.3572 63.8623Z" fill="#BFD5EB"/>
</g>
<g style="mix-blend-mode:multiply">
<path d="M87.3828 63.7348C74.0602 63.6016 63.3187 57.6387 63.3909 50.4163C63.4631 43.1938 74.3218 37.4469 87.6443 37.5801C100.967 37.7133 111.708 43.6763 111.636 50.8987C111.564 58.1211 100.705 63.8681 87.3828 63.7348Z" fill="#BDD4EB"/>
</g>
<g style="mix-blend-mode:multiply">
<path d="M87.3628 63.3295C74.3152 63.1928 63.7982 57.3447 63.8723 50.2673C63.9465 43.1899 74.5836 37.5633 87.6312 37.7C100.679 37.8366 111.196 43.6847 111.122 50.7621C111.048 57.8395 100.41 63.4661 87.3628 63.3295Z" fill="#BCD3EA"/>
</g>
<g style="mix-blend-mode:multiply">
<path d="M87.3656 63.0586C74.5874 62.9248 64.2874 57.2002 64.36 50.2725C64.4325 43.3447 74.8501 37.8371 87.6283 37.971C100.407 38.1048 110.707 43.8293 110.634 50.7571C110.561 57.6848 100.144 63.1924 87.3656 63.0586Z" fill="#BBD2EA"/>
</g>
<g style="mix-blend-mode:multiply">
<path d="M87.3684 62.7876C74.8645 62.6567 64.7856 57.0558 64.8566 50.2776C64.9276 43.4995 75.1215 38.1109 87.6254 38.2418C100.129 38.3728 110.208 43.9737 110.137 50.7518C110.066 57.53 99.8723 62.9186 87.3684 62.7876Z" fill="#B9D1EA"/>
</g>
<g style="mix-blend-mode:multiply">
<path d="M87.3711 62.5258C75.1366 62.3977 65.2748 56.9163 65.3443 50.2828C65.4138 43.6493 75.3881 38.3757 87.6227 38.5038C99.8573 38.6319 109.719 44.1133 109.65 50.7468C109.58 57.3803 99.6057 62.6539 87.3711 62.5258Z" fill="#B8D0E9"/>
</g>
<g style="mix-blend-mode:multiply">
<path d="M87.374 62.2548C75.4137 62.1296 65.7731 56.7718 65.841 50.288C65.9089 43.8041 75.6596 38.6494 87.6199 38.7747C99.5801 38.8999 109.221 44.2577 109.153 50.7415C109.085 57.2254 99.3342 62.3801 87.374 62.2548Z" fill="#B6D0E9"/>
</g>
<g style="mix-blend-mode:multiply">
<path d="M87.3768 61.993C75.6859 61.8706 66.2624 56.6324 66.3287 50.2931C66.3951 43.9539 75.9263 38.9142 87.6172 39.0366C99.3081 39.1591 108.732 44.3973 108.665 50.7365C108.599 57.0757 99.0677 62.1154 87.3768 61.993Z" fill="#B5CFE8"/>
</g>
<g style="mix-blend-mode:multiply">
<path d="M108.195 50.7289C108.132 56.9244 98.8298 61.8465 87.4233 61.7201C76.0167 61.5936 66.8047 56.4909 66.868 50.2954C66.9312 44.0999 76.2425 39.1869 87.64 39.3043C99.0375 39.4217 108.195 44.5425 108.195 50.7289Z" fill="#B3CEE8"/>
</g>
<g style="mix-blend-mode:multiply">
<path d="M87.3824 61.4601C76.2351 61.3434 67.2498 56.3483 67.3131 50.3034C67.3764 44.2584 76.4644 39.4527 87.6116 39.5694C98.7589 39.6861 107.744 44.6812 107.681 50.7261C107.618 56.7711 98.5297 61.5769 87.3824 61.4601Z" fill="#B2CDE7"/>
</g>
<g style="mix-blend-mode:multiply">
<path d="M107.184 50.7199C107.13 56.6174 98.2608 61.3046 87.3871 61.1872C76.5134 61.0698 67.744 56.2019 67.8072 50.3496C67.8704 44.4973 76.7392 39.7739 87.6129 39.8823C98.4866 39.9907 107.247 44.8225 107.184 50.7199Z" fill="#B0CCE7"/>
</g>
<g style="mix-blend-mode:multiply">
<path d="M87.4095 61.0705C76.8053 60.9645 68.2555 56.2164 68.313 50.4654C68.3705 44.7144 77.0135 40.1382 87.6177 40.2443C98.2219 40.3503 106.772 45.0984 106.714 50.8494C106.657 56.6004 98.0137 61.1766 87.4095 61.0705Z" fill="#AFCBE6"/>
</g>
<g style="mix-blend-mode:multiply">
<path d="M87.3907 60.6564C77.0614 60.5482 68.7355 55.9199 68.7941 50.3189C68.8528 44.7178 77.2739 40.2649 87.6032 40.3731C97.9325 40.4813 106.258 45.1095 106.2 50.7106C106.141 56.3117 97.72 60.7645 87.3907 60.6564Z" fill="#ADCAE6"/>
</g>
<g style="mix-blend-mode:multiply">
<path d="M105.712 50.7019C105.657 56.1207 97.457 60.4918 87.3961 60.3925C77.3352 60.2931 69.2251 55.7775 69.2883 50.3225C69.3515 44.8676 77.5429 40.5326 87.6038 40.641C97.6647 40.7493 105.766 45.256 105.712 50.7019Z" fill="#ACC9E5"/>
</g>
<g style="mix-blend-mode:multiply">
<path d="M105.215 50.7018C105.161 56.0032 97.1861 60.2299 87.3962 60.1215C77.6062 60.0131 69.7219 55.6058 69.776 50.3315C69.8302 45.0572 77.8139 40.8035 87.5949 40.9028C97.3758 41.0022 105.278 45.3914 105.215 50.7018Z" fill="#AAC8E5"/>
</g>
<g style="mix-blend-mode:multiply">
<path d="M87.3991 59.8527C77.8828 59.753 70.2121 55.4915 70.2661 50.3343C70.3201 45.1772 78.0784 41.0773 87.5947 41.1769C97.111 41.2766 104.782 45.5381 104.728 50.6952C104.674 55.8524 96.9154 59.9523 87.3991 59.8527Z" fill="#A9C7E5"/>
</g>
<g style="mix-blend-mode:multiply">
<path d="M87.4229 59.7339C78.1804 59.6415 70.7285 55.5029 70.7786 50.4901C70.8287 45.4773 78.3619 41.4885 87.6044 41.5809C96.8469 41.6734 104.299 45.812 104.249 50.8248C104.199 55.8376 96.6654 59.8263 87.4229 59.7339Z" fill="#A7C6E4"/>
</g>
<g style="mix-blend-mode:multiply">
<path d="M103.743 50.6838C103.689 55.5517 96.3733 59.4171 87.4052 59.3268C78.4371 59.2365 71.203 55.2085 71.2571 50.2955C71.3113 45.3825 78.6177 41.5712 87.5948 41.6615C96.572 41.7519 103.797 45.825 103.743 50.6838Z" fill="#A5C4E4"/>
</g>
<g style="mix-blend-mode:multiply">
<path d="M87.4075 59.0579C78.7092 58.9668 71.6978 55.0681 71.7473 50.3498C71.7967 45.6316 78.8881 41.8805 87.5865 41.9716C96.2848 42.0627 103.296 45.9614 103.247 50.6797C103.197 55.398 96.1059 59.149 87.4075 59.0579Z" fill="#A4C3E3"/>
</g>
<g style="mix-blend-mode:multiply">
<path d="M102.777 50.6748C102.731 55.2446 95.8585 58.8752 87.4233 58.803C78.988 58.7307 72.2055 54.9466 72.2506 50.3767C72.2958 45.8069 79.1686 42.1672 87.6039 42.2485C96.0392 42.3298 102.777 46.1049 102.777 50.6748Z" fill="#A2C2E3"/>
</g>
<g style="mix-blend-mode:multiply">
<path d="M87.4131 58.5251C79.2584 58.4397 72.6853 54.7841 72.7316 50.3601C72.778 45.9361 79.4262 42.419 87.5809 42.5044C95.7356 42.5898 102.309 46.2453 102.262 50.6693C102.216 55.0933 95.5678 58.6105 87.4131 58.5251Z" fill="#A0C1E2"/>
</g>
<g style="mix-blend-mode:multiply">
<path d="M87.4159 58.2542C79.5305 58.1716 73.1744 54.6396 73.2192 50.3652C73.2639 46.0909 79.6926 42.6928 87.578 42.7753C95.4634 42.8579 101.819 46.3899 101.775 50.6643C101.73 54.9387 95.3013 58.3368 87.4159 58.2542Z" fill="#9FC0E1"/>
</g>
<g style="mix-blend-mode:multiply">
<path d="M87.4187 57.9832C79.8077 57.9035 73.6727 54.4951 73.7159 50.3704C73.7591 46.2457 79.9641 42.9665 87.5751 43.0462C95.1862 43.1259 101.321 46.5343 101.278 50.659C101.235 54.7838 95.0298 58.0629 87.4187 57.9832Z" fill="#9DBFE1"/>
</g>
<g style="mix-blend-mode:multiply">
<path d="M87.4215 57.7214C80.0798 57.6445 74.1619 54.3557 74.2036 50.3756C74.2453 46.3955 80.2307 43.2313 87.5725 43.3082C94.9142 43.3851 100.832 46.6739 100.79 50.654C100.749 54.6341 94.7633 57.7983 87.4215 57.7214Z" fill="#9BBEE0"/>
</g>
<g style="mix-blend-mode:multiply">
<path d="M100.293 50.6477C100.293 54.486 94.4947 57.5296 87.4232 57.4573C80.3517 57.3851 74.662 54.2151 74.6981 50.3767C74.7342 46.5384 80.5052 43.5039 87.5677 43.5762C94.6302 43.6484 100.338 46.8184 100.293 50.6477Z" fill="#9ABDE0"/>
</g>
<g style="mix-blend-mode:multiply">
<path d="M99.8052 50.6477C99.8052 54.3325 94.2239 57.2587 87.4323 57.1864C80.6408 57.1142 75.1587 54.0706 75.1948 50.3858C75.231 46.701 80.7762 43.7749 87.5678 43.8471C94.3593 43.9194 99.8413 46.9629 99.8052 50.6477Z" fill="#98BCDF"/>
</g>
<g style="mix-blend-mode:multiply">
<path d="M87.4299 56.9176C80.9061 56.8493 75.6476 53.9272 75.6846 50.391C75.7216 46.8548 81.0402 44.0436 87.564 44.1119C94.0877 44.1802 99.3463 47.1023 99.3093 50.6385C99.2722 54.1747 93.9536 56.9859 87.4299 56.9176Z" fill="#96BADF"/>
</g>
<g style="mix-blend-mode:multiply">
<path d="M98.8207 50.6296C98.8207 54.0254 93.6909 56.7168 87.4322 56.6535C81.1735 56.5903 76.143 53.7906 76.1792 50.3948C76.2153 46.999 81.309 44.3077 87.5586 44.38C93.8083 44.4522 98.8568 47.2429 98.8207 50.6296Z" fill="#94B9DE"/>
</g>
<g style="mix-blend-mode:multiply">
<path d="M98.324 50.6296C98.324 53.8719 93.42 56.4458 87.4413 56.3826C81.4625 56.3193 76.6037 53.6732 76.6669 50.4038C76.7301 47.1345 81.58 44.5786 87.5587 44.6418C93.5374 44.7051 98.3602 47.3874 98.324 50.6296Z" fill="#92B8DE"/>
</g>
<g style="mix-blend-mode:multiply">
<path d="M97.8363 50.6206C97.8363 53.7184 93.149 56.1839 87.4412 56.1207C81.7334 56.0575 77.1275 53.5016 77.1636 50.4039C77.1997 47.3061 81.8508 44.8496 87.5586 44.9128C93.2664 44.976 97.8634 47.5319 97.8363 50.6206Z" fill="#91B7DD"/>
</g>
<g style="mix-blend-mode:multiply">
<path d="M97.3577 50.6206C97.3577 53.5648 92.8963 55.9129 87.4233 55.8497C81.9503 55.7865 77.6062 53.3571 77.6333 50.4309C77.6604 47.5048 82.1038 45.1386 87.5678 45.1927C93.0317 45.2469 97.3577 47.6673 97.3577 50.6206Z" fill="#8FB6DD"/>
</g>
<g style="mix-blend-mode:multiply">
<path d="M96.852 50.6115C96.852 53.4113 92.6072 55.642 87.4413 55.5878C82.2754 55.5336 78.121 53.2306 78.1481 50.4128C78.1752 47.5951 82.3838 45.3914 87.5497 45.4456C92.7156 45.4998 96.8791 47.8118 96.852 50.6115Z" fill="#8DB5DC"/>
</g>
<g style="mix-blend-mode:multiply">
<path d="M96.3552 50.6115C96.3552 53.2577 92.3453 55.371 87.4503 55.3168C82.5553 55.2626 78.6086 53.0771 78.6357 50.4219C78.6628 47.7666 82.6547 45.6623 87.5497 45.7075C92.4446 45.7527 96.3823 47.9563 96.3552 50.6115Z" fill="#8BB3DB"/>
</g>
<g style="mix-blend-mode:multiply">
<path d="M87.4495 55.0483C82.826 54.9998 79.0992 52.9309 79.1254 50.4271C79.1516 47.9233 82.9209 45.9329 87.5444 45.9813C92.1679 46.0297 95.8948 48.0987 95.8685 50.6024C95.8423 53.1062 92.073 55.0967 87.4495 55.0483Z" fill="#89B2DB"/>
</g>
<g style="mix-blend-mode:multiply">
<path d="M95.3708 50.5935C95.3708 52.9597 91.8035 54.8292 87.4504 54.784C83.0973 54.7388 79.6021 52.7881 79.6202 50.4309C79.6382 48.0737 83.2327 46.1952 87.5407 46.2404C91.8486 46.2855 95.3979 48.2363 95.3708 50.5935Z" fill="#87B1DA"/>
</g>
<g style="mix-blend-mode:multiply">
<path d="M94.8831 50.5935C94.8831 52.8062 91.5325 54.5583 87.4593 54.5221C83.3862 54.486 80.0898 52.6527 80.1168 50.44C80.1439 48.2273 83.4584 46.4662 87.5406 46.5113C91.6228 46.5565 94.9011 48.3808 94.8831 50.5935Z" fill="#85B0DA"/>
</g>
<g style="mix-blend-mode:multiply">
<path d="M94.3864 50.5845C94.3864 52.6526 91.2616 54.2873 87.4594 54.2512C83.6572 54.215 80.5866 52.5081 80.6046 50.44C80.6227 48.3718 83.7295 46.7371 87.5407 46.8274C91.3519 46.9177 94.4135 48.5253 94.3864 50.5845Z" fill="#84AED9"/>
</g>
<g style="mix-blend-mode:multiply">
<path d="M87.4606 53.9826C83.9244 53.9456 81.074 52.363 81.0941 50.4477C81.1141 48.5325 83.997 47.0099 87.5332 47.047C91.0694 47.084 93.9199 48.6666 93.8998 50.5818C93.8798 52.4971 90.9968 54.0197 87.4606 53.9826Z" fill="#82ADD9"/>
</g>
<g style="mix-blend-mode:multiply">
<path d="M93.402 50.5754C93.402 52.3817 90.6926 53.7544 87.4684 53.7183C84.2442 53.6822 81.571 52.2191 81.589 50.4489C81.6071 48.6788 84.2984 47.279 87.5316 47.3151C90.7649 47.3512 93.4201 48.8052 93.402 50.5754Z" fill="#80ACD8"/>
</g>
<g style="mix-blend-mode:multiply">
<path d="M92.9143 50.5755C92.9143 52.1921 90.4577 53.4836 87.4955 53.4474C84.5332 53.4113 82.0767 52.0837 82.0767 50.4581C82.0767 48.8324 84.5332 47.55 87.4955 47.5771C90.4577 47.6042 92.9323 48.9498 92.9143 50.5755Z" fill="#7EAAD7"/>
</g>
<g style="mix-blend-mode:multiply">
<path d="M92.4175 50.5664C92.4175 52.0385 90.1867 53.2126 87.4683 53.1855C84.7499 53.1584 82.5643 51.9391 82.5734 50.4761C82.5824 49.013 84.8041 47.8118 87.5225 47.8118C90.2409 47.8118 92.4356 49.0943 92.4175 50.5664Z" fill="#7CA9D7"/>
</g>
<g style="mix-blend-mode:multiply">
<path d="M91.9389 50.5212C91.9389 51.8488 89.9249 52.9055 87.4865 52.8784C85.048 52.8513 83.0611 51.7585 83.0792 50.4309C83.0972 49.1033 85.0841 48.0557 87.5316 48.0737C89.9791 48.0918 91.9389 49.2388 91.9389 50.5212Z" fill="#7AA8D6"/>
</g>
<g style="mix-blend-mode:multiply">
<path d="M91.4332 50.5212C91.4332 51.6953 89.6269 52.6346 87.4775 52.6165C85.328 52.5984 83.5489 51.614 83.5579 50.44C83.5669 49.2659 85.3641 48.3176 87.5226 48.3447C89.6811 48.3718 91.4513 49.3743 91.4332 50.5212Z" fill="#78A7D5"/>
</g>
<g style="mix-blend-mode:multiply">
<path d="M90.9455 50.5213C90.9455 51.5599 89.383 52.3275 87.4774 52.3275C85.5718 52.3275 84.0455 51.4244 84.0545 50.4219C84.0636 49.4194 85.617 48.6157 87.5226 48.6157C89.4282 48.6157 90.9545 49.5188 90.9455 50.5213Z" fill="#76A5D5"/>
</g>
<g style="mix-blend-mode:multiply">
<path d="M90.4488 50.5212C90.4488 51.4244 89.1122 52.1107 87.4775 52.0927C85.8428 52.0746 84.5333 51.3431 84.5423 50.458C84.5513 49.5729 85.888 48.8685 87.5136 48.8866C89.1393 48.9046 90.4578 49.6633 90.4488 50.5212Z" fill="#74A4D4"/>
</g>
<g style="mix-blend-mode:multiply">
<path d="M89.9611 50.5212C89.9611 51.2618 88.8412 51.8489 87.4865 51.8308C86.1318 51.8127 85.03 51.2076 85.039 50.4671C85.048 49.7265 86.1499 49.1485 87.5136 49.1665C88.8773 49.1846 89.9701 49.8078 89.9611 50.5212Z" fill="#71A3D4"/>
</g>
<g style="mix-blend-mode:multiply">
<path d="M89.4643 50.5213C89.4643 51.1083 88.5612 51.5779 87.4864 51.5689C86.4117 51.5599 85.5266 51.0631 85.5266 50.4761C85.5266 49.8891 86.4298 49.4194 87.5135 49.4285C88.5973 49.4375 89.4733 49.9433 89.4643 50.5213Z" fill="#6FA1D3"/>
</g>
<g style="mix-blend-mode:multiply">
<path d="M88.9766 50.5212C88.9766 50.9638 88.3083 51.316 87.4865 51.307C86.6646 51.2979 86.0144 50.9367 86.0234 50.4941C86.0324 50.0516 86.6917 49.6994 87.5045 49.7084C88.3173 49.7175 88.9766 50.0877 88.9766 50.5212Z" fill="#6DA0D2"/>
</g>
<g style="mix-blend-mode:multiply">
<path d="M88.4799 50.5213C88.4799 50.8193 88.0374 51.0541 87.4955 51.0451C86.9536 51.036 86.5201 50.8012 86.5201 50.5213C86.5201 50.2413 86.9717 49.9974 87.5136 49.9974C88.0555 49.9974 88.489 50.2323 88.4799 50.5213Z" fill="#6B9ED2"/>
</g>
<g style="mix-blend-mode:multiply">
<path d="M87.9922 50.5213C87.9922 50.6658 87.7664 50.7832 87.4955 50.7832C87.2246 50.7832 87.0078 50.6567 87.0078 50.5122C87.0078 50.3677 87.2336 50.2413 87.5045 50.2503C87.7755 50.2594 87.9922 50.3768 87.9922 50.5213Z" fill="#699DD1"/>
</g>
</g>
<path d="M62.1898 37.9496L66.877 35.2402L49.582 25.2335C49.4046 25.1721 49.2507 25.0569 49.1417 24.9039C49.0328 24.7509 48.9743 24.5678 48.9743 24.38C48.9743 24.1922 49.0328 24.0091 49.1417 23.8562C49.2507 23.7032 49.4046 23.588 49.582 23.5266L67.2473 13.3212C67.7082 13.0893 68.217 12.9685 68.733 12.9685C69.2489 12.9685 69.7577 13.0893 70.2186 13.3212L87.5046 23.3279L92.2009 20.6185L74.9059 10.6298C72.9916 9.66371 70.8772 9.1604 68.733 9.1604C66.5887 9.1604 64.4743 9.66371 62.56 10.6298L44.8948 20.8352C41.49 22.795 41.49 25.9921 44.8948 27.961L62.1898 37.9496Z" fill="#173D7A"/>
<path d="M54.6215 39.1418C54.6215 36.6311 56.1478 33.723 58.0263 32.6302L89.356 14.5676C89.6728 14.3419 90.0443 14.2053 90.4319 14.172C90.8194 14.1386 91.2088 14.2097 91.5596 14.3779L128.967 36.0711L92.7879 63.3367L55.931 41.9415C55.8159 41.8905 55.7069 41.8269 55.6059 41.7519C55.2552 41.4195 54.9845 41.0119 54.814 40.5599C54.6435 40.1078 54.5777 39.623 54.6215 39.1418Z" fill="#D4ECFF"/>
<path d="M92.7969 63.3547L55.94 41.9595C55.825 41.9086 55.7159 41.845 55.6149 41.7699C55.2601 41.4364 54.9862 41.0263 54.814 40.5708C54.6418 40.1153 54.576 39.6266 54.6214 39.1418C54.6508 37.8855 54.9593 36.6515 55.5246 35.5292L97.5473 59.7693L92.7969 63.3547Z" fill="#396CAA"/>
<path d="M95.1541 63.2554L126.484 45.1928C128.371 44.109 129.898 41.1919 129.898 38.6902C129.898 36.1795 128.371 35.0235 126.484 36.1163L95.1541 54.1789C93.2756 55.2627 91.7493 58.1708 91.7493 60.6815C91.7493 63.1651 93.2756 64.3392 95.1541 63.2554Z" fill="#173D7A"/>
<path d="M94.7749 54.0074L126.114 35.9447C126.436 35.7111 126.818 35.5721 127.215 35.5434C127.612 35.5146 128.009 35.5973 128.362 35.7822C128.043 35.7039 127.711 35.6931 127.388 35.7507C127.064 35.8082 126.756 35.9328 126.484 36.1163L95.1542 54.179C93.2756 55.2627 91.7494 58.1708 91.7494 60.6815C91.697 61.1941 91.7755 61.7115 91.9777 62.1854C92.1799 62.6593 92.4991 63.0741 92.9054 63.3909C92.0022 63.111 91.37 62.0633 91.37 60.4828C91.37 57.9992 92.8963 55.0911 94.7749 54.0074Z" fill="white"/>
<path d="M99.8503 57.1592L103.616 54.9827C103.823 54.8336 103.991 54.6384 104.109 54.4126C104.227 54.1868 104.29 53.9367 104.294 53.6822C104.294 53.1854 103.987 52.9597 103.616 53.1674L99.8503 55.3439C99.6424 55.4915 99.4725 55.6863 99.3547 55.9125C99.2369 56.1386 99.1746 56.3895 99.173 56.6444C99.1639 57.1412 99.471 57.3669 99.8503 57.1592Z" fill="#FF2C9C"/>
<path d="M95.0367 31.7542C94.822 31.6781 94.6362 31.5374 94.5047 31.3514C94.3733 31.1654 94.3027 30.9433 94.3027 30.7155C94.3027 30.4878 94.3733 30.2657 94.5047 30.0797C94.6362 29.8937 94.822 29.753 95.0367 29.6769C95.5956 29.3901 96.2148 29.2405 96.843 29.2405C97.4712 29.2405 98.0903 29.3901 98.6492 29.6769C98.8649 29.7507 99.0522 29.89 99.1848 30.0754C99.3174 30.2608 99.3887 30.4831 99.3887 30.711C99.3887 30.939 99.3174 31.1612 99.1848 31.3467C99.0522 31.5321 98.8649 31.6714 98.6492 31.7451C98.0904 32.0312 97.4719 32.1812 96.8441 32.1828C96.2163 32.1843 95.5969 32.0375 95.0367 31.7542Z" fill="#5793CE"/>
<path d="M89.5636 34.8338C89.3479 34.7601 89.1607 34.6208 89.0281 34.4354C88.8955 34.2499 88.8242 34.0277 88.8242 33.7997C88.8242 33.5718 88.8955 33.3495 89.0281 33.1641C89.1607 32.9787 89.3479 32.8394 89.5636 32.7656C90.1216 32.4759 90.7412 32.3246 91.3699 32.3246C91.9987 32.3246 92.6182 32.4759 93.1762 32.7656C93.3919 32.8394 93.5792 32.9787 93.7117 33.1641C93.8443 33.3495 93.9156 33.5718 93.9156 33.7997C93.9156 34.0277 93.8443 34.2499 93.7117 34.4354C93.5792 34.6208 93.3919 34.7601 93.1762 34.8338C92.6162 35.1171 91.9975 35.2648 91.3699 35.2648C90.7424 35.2648 90.1236 35.1171 89.5636 34.8338Z" fill="white"/>
<path d="M84.0997 37.8773C83.8839 37.8036 83.6967 37.6643 83.5641 37.4789C83.4315 37.2935 83.3602 37.0712 83.3602 36.8432C83.3602 36.6153 83.4315 36.393 83.5641 36.2076C83.6967 36.0222 83.8839 35.8829 84.0997 35.8092C84.6577 35.5194 85.2772 35.3682 85.9059 35.3682C86.5347 35.3682 87.1542 35.5194 87.7122 35.8092C87.9279 35.8829 88.1151 36.0222 88.2477 36.2076C88.3803 36.393 88.4516 36.6153 88.4516 36.8432C88.4516 37.0712 88.3803 37.2935 88.2477 37.4789C88.1151 37.6643 87.9279 37.8036 87.7122 37.8773C87.1526 38.1621 86.5337 38.3105 85.9059 38.3105C85.2781 38.3105 84.6592 38.1621 84.0997 37.8773Z" fill="white"/>
</svg>
